# AST/ASF file generated using VICON BodyLanguage
# -----------------------------------------------
:version 1.10
:name VICON
:units
  mass 1.0
  length 0.45
  angle deg
:documentation
   .ast/.asf automatically generated from VICON data using
   VICON BodyBuilder and BodyLanguage model FoxedUp or BRILLIANT.MOD
:root
   order TX TY TZ RX RY RZ
   axis XYZ
   position 0 0 0  
   orientation 0 0 0 
:bonedata
  begin
     id 1 
     name lhipjoint
     direction 0.722297 -0.617336 0.311742 
     length 2.6635 
     axis 0 0 0  XYZ
  end
  begin
     id 2 
     name lfemur
     direction 0.34202 -0.939693 0  
     length 7.39349  
     axis 0 0 20  XYZ
    dof rx ry rz
    limits (-160.0 20.0)
           (-70.0 70.0)
           (-60.0 70.0)
  end
  begin
     id 3 
     name ltibia
     direction 0.34202 -0.939693 0   
     length 7.36294   
     axis 0 0 20   XYZ
    dof rx
    limits (-10.0 170.0)
  end
  begin
     id 4 
     name lfoot
     direction 0.104879 -0.288152 0.951824   
     length 2.16981   
     axis -90 7.62852e-016 20   XYZ
    dof rx rz
    limits (-45.0 90.0)
           (-70.0 20.0)
  end
  begin
     id 5 
     name ltoes
     direction 1.53586e-011 -4.21895e-011 1   
     length 1.08218   
     axis -90 7.62852e-016 20   XYZ
    dof rx
    limits (-90.0 20.0)
  end
  begin
     id 6 
     name rhipjoint
     direction -0.75102 -0.589393 0.297631   
     length 2.78977  
     axis 0 0 0  XYZ 
  end
  begin
     id 7 
     name rfemur
     direction -0.34202 -0.939693 0   
     length 7.46076   
     axis 0 0 -20   XYZ
    dof rx ry rz
    limits (-160.0 20.0)
           (-70.0 70.0)
           (-70.0 60.0)
  end
  begin
     id 8 
     name rtibia
     direction -0.34202 -0.939693 0   
     length 7.31726   
     axis 0 0 -20   XYZ
    dof rx
    limits (-10.0 170.0)
 end
 begin
     id 9 
     name rfoot
     direction -0.107991 -0.296704 0.948844   
     length 2.09388  
     axis -90 -7.62852e-016 -20   XYZ
    dof rx rz
    limits (-45.0 90.0)
           (-20.0 70.0)
  end
  begin
     id 10 
     name rtoes
     direction -1.53559e-011 -4.21911e-011 1   
     length 1.04433   
     axis -90 -7.62852e-016 -20   XYZ
    dof rx
    limits (-90.0 20.0)
  end
  begin
     id 11 
     name lowerback
     direction 0.0165164 0.98272 0.184358   
     length 1.71896   
     axis 0 0 0   XYZ
    dof rx ry rz
    limits (-20.0 45.0)
           (-30.0 30.0)
           (-30.0 30.0)
  end
  begin
     id 12 
     name upperback
     direction -0.00887249 0.992297 0.123566   
     length 1.71504   
     axis 0 0 0   XYZ
    dof rx ry rz
    limits (-20.0 45.0)
           (-30.0 30.0)
           (-30.0 30.0)
  end
  begin
     id 13 
     name thorax
     direction -0.0157026 0.998908 0.0440032   
     length 1.77022   
     axis 0 0 0   XYZ
    dof rx ry rz
    limits (-20.0 45.0)
           (-30.0 30.0)
           (-30.0 30.0)
  end
  begin
     id 14 
     name lowerneck
     direction -0.0238856 0.998137 0.0561411   
     length 1.89341   
     axis 0 0 0   XYZ
    dof rx ry rz
    limits (-20.0 45.0)
           (-30.0 30.0)
           (-30.0 30.0)
  end
  begin
     id 15 
     name upperneck
     direction 0.0276574 0.952253 -0.304056   
     length 1.86999   
     axis 0 0 0   XYZ
    dof rx ry rz
    limits (-20.0 45.0)
           (-30.0 30.0)
           (-30.0 30.0)
  end
  begin
     id 16
     name head
     direction 0.00800083 0.994258 -0.106712  
     length 1.91492  
     axis 0 0 0   XYZ
    dof rx ry rz
    limits (-20.0 45.0)
           (-30.0 30.0)
           (-30.0 30.0)
  end
  begin
     id 17 
     name lclavicle
     direction 0.97203 0.225407 0.06595  
     length 3.34889  
     axis 0 0 0   XYZ
    dof ry rz
    limits (-20.0 10.0)
           (0.0 20.0)
  end
  begin
     id 18 
     name lhumerus
     direction 1 -4.48973e-011 2.20267e-027   
     length 4.85645   
     axis 180 -30 -90   XYZ
    dof rx ry rz
    limits (-60.0 90.0)
           (-90.0 90.0)
           (-90.0 90.0)
  end
  begin
     id 19
     name lradius
     direction 1 -4.4897e-011 4.60472e-027   
     length 2.79874   
     axis 180 -30 -90   XYZ
    dof rx
    limits (-10.0 170.0)
  end
  begin
     id 20
     name lwrist
     direction 1 -4.48952e-011 1.14928e-026   
     length 1.39937   
     axis -6.29373e-015 90 90   XYZ
    dof ry
    limits (-180.0 0.0)
 end
  begin
     id 21 
     name lhand
     direction 1 -4.48967e-011 2.29886e-026   
     length 0.573398   
     axis -1.46689e-014 90 90   XYZ
    dof rx rz
    limits (-90.0 90.0)
           (-45.0 45.0)
  end
  begin
     id 22 
     name lfingers
     direction 1 -4.48955e-011 4.59726e-026   
     length 0.462289   
     axis -2.93383e-014 90 90   XYZ
    dof rx
    limits (0.0 90.0)
  end
  begin
     id 23
     name lthumb
     direction 0.707107 -6.34866e-011 0.707107   
     length 0.663757   
     axis -90 45 5.69224e-014   XYZ
    dof rx rz
    limits (-45.0 45.0)
           (-45.0 45.0)
  end
  begin
     id 24 
     name rclavicle
     direction -0.981571 0.157346 0.108443   
     length 3.35257  
     axis 0 0 0   XYZ 
    dof ry rz
    limits (-10.0 20.0)
           (-20.0 0.0)
  end
  begin
     id 25 
     name rhumerus
     direction -1 -4.48967e-011 8.58308e-029  
     length 4.67018   
     axis 180 30 90   XYZ
    dof rx ry rz
    limits (-90.0 60.0)
           (-90.0 90.0)
           (-90.0 90.0)
  end
  begin
     id 26 
     name rradius
     direction -1 -4.48958e-011 4.52548e-027   
     length 2.65534   
     axis 180 30 90   XYZ
    dof rx
    limits (-10.0 170.0)
  end
  begin
     id 27 
     name rwrist
     direction -1 -4.48977e-011 1.14952e-026   
     length 1.32767   
     axis -6.29373e-015 -90 -90   XYZ
    dof ry
    limits (-180.0 0.0)
  end
  begin
     id 28
     name rhand
     direction -1 -4.48924e-011 2.29804e-026   
     length 0.594069   
     axis -1.46689e-014 -90 -90   XYZ
    dof rx rz
    limits (-90.0 90.0)
           (-45.0 45.0)
  end
  begin
     id 29
     name rfingers
     direction -1 -4.48998e-011 4.59888e-026   
     length 0.478954   
     axis -2.93383e-014 -90 -90   XYZ
    dof rx
    limits (0.0 90.0)
  end
  begin
     id 30
     name rthumb
     direction -0.707107 -6.34933e-011 0.707107   
     length 0.687685   
     axis -90 -45 -5.69224e-014   XYZ
    dof rx rz
    limits (-45.0 45.0)
           (-45.0 45.0)
  end
:hierarchy
  begin
    root lhipjoint rhipjoint lowerback
    lhipjoint lfemur
    lfemur ltibia
    ltibia lfoot
    lfoot ltoes
    rhipjoint rfemur
    rfemur rtibia
    rtibia rfoot
    rfoot rtoes
    lowerback upperback
    upperback thorax
    thorax lowerneck lclavicle rclavicle
    lowerneck upperneck
    upperneck head
    lclavicle lhumerus
    lhumerus lradius
    lradius lwrist
    lwrist lhand lthumb
    lhand lfingers
    rclavicle rhumerus
    rhumerus rradius
    rradius rwrist
    rwrist rhand rthumb
    rhand rfingers
  end

#!OML:ASF E:\pregnant2\Project 1\Capture day 1\Session 1\pregnant2.ASF
:FULLY-SPECIFIED
:DEGREES
570
root 5.66289 18.6591 5.55313 -146.654 11.6482 177.383
lowerback -8.53269 -0.587161 -4.72122
upperback -12.0522 1.02143 -2.29082
thorax -7.97252 1.56774 0.11052
lowerneck -14.6416 -5.05583 -1.46204
upperneck 44.8652 1.59166 -4.64947
head 20.1707 1.7462 -1.02186
rclavicle -7.10655e-015 2.78299e-015
rhumerus -56.453 15.437 -91.079
rradius 78.0837
rwrist 7.21604
rhand -13.4698 -11.2831
rfingers 7.12502
rthumb 12.6403 -40.8807
lclavicle -7.10655e-015 2.78299e-015
lhumerus -46.2409 -5.18064 77.6142
lradius 62.8818
lwrist -6.03093
lhand -4.52593 26.5494
lfingers 7.12502
lthumb 21.2488 55.4047
rfemur -49.0034 -2.3137 18.7368
rtibia 69.5622
rfoot 8.58629 -5.00331
rtoes 2.9735
lfemur -67.593 -4.84902 -26.7301
ltibia 45.6077
lfoot -9.22307 8.48377
ltoes -9.85934
571
root 5.64765 18.708 5.46416 -146.603 11.6175 177.492
lowerback -8.63206 -0.620925 -4.56663
upperback -11.9843 0.965944 -2.20199
thorax -7.8354 1.52107 0.125119
lowerneck -14.796 -5.05802 -1.57546
upperneck 45.0107 1.62716 -4.55072
head 20.3226 1.75397 -0.94613
rclavicle -1.66979e-014 -1.27222e-014
rhumerus -56.4561 15.2568 -90.8988
rradius 77.5734
rwrist 7.17566
rhand -13.6769 -11.3199
rfingers 7.12502
rthumb 12.4406 -40.9296
lclavicle -1.66979e-014 -1.27222e-014
lhumerus -45.9173 -5.12344 77.758
lradius 63.1628
lwrist -5.92458
lhand -4.67521 26.7628
lfingers 7.12502
lthumb 21.1054 55.6341
rfemur -50.492 -2.77048 19.1466
rtibia 71.8292
rfoot 6.80978 -5.54062
rtoes 0.406078
lfemur -66.9119 -4.84714 -26.7372
ltibia 44.9834
lfoot -9.35069 8.48783
ltoes -9.88264
572
root 5.63484 18.7568 5.38385 -146.593 11.6669 177.544
lowerback -8.58331 -0.623212 -4.49935
upperback -12.0195 0.960037 -2.16901
thorax -7.90146 1.51661 0.119631
lowerneck -14.5783 -5.0599 -1.59956
upperneck 45.0446 1.68201 -4.55059
head 20.284 1.78738 -0.925294
rclavicle -2.38045e-014 -1.70955e-014
rhumerus -56.6462 14.8715 -90.7027
rradius 77.0632
rwrist 7.19524
rhand -13.6963 -11.5807
rfingers 7.12502
rthumb 12.4219 -41.1915
lclavicle -2.38045e-014 -1.70955e-014
lhumerus -45.73 -5.22872 77.9366
lradius 63.394
lwrist -5.84276
lhand -4.91837 26.7962
lfingers 7.12502
lthumb 20.8718 55.6935
rfemur -52.071 -3.0885 19.4762
rtibia 74.0648
rfoot 5.5844 -5.86772
rtoes 0.0633691
lfemur -66.2131 -4.79452 -26.82
ltibia 44.3103
lfoot -9.4362 8.47549
ltoes -9.80893
573
root 5.62234 18.8059 5.29998 -146.567 11.7044 177.602
lowerback -8.67931 -0.649566 -4.44808
upperback -11.9362 0.914776 -2.10151
thorax -7.75172 1.48124 0.16932
lowerneck -14.7107 -5.02989 -1.45811
upperneck 45.0587 1.75779 -4.73348
head 20.34 1.8095 -1.03178
rclavicle 6.21202e-015 -9.54166e-015
rhumerus -56.4525 14.6916 -90.4828
rradius 76.3219
rwrist 7.14769
rhand -13.6787 -11.8926
rfingers 7.12502
rthumb 12.4389 -41.5024
lclavicle 6.21202e-015 -9.54166e-015
lhumerus -45.3596 -5.17064 78.0807
lradius 63.6511
lwrist -5.74604
lhand -5.30728 26.8109
lfingers 7.12502
lthumb 20.4982 55.7489
rfemur -53.6326 -3.39654 19.8201
rtibia 76.2401
rfoot 4.30882 -6.15426
rtoes -0.382026
lfemur -65.5165 -4.74229 -26.9017
ltibia 43.6446
lfoot -9.54555 8.45319
ltoes -9.7563
574
root 5.60719 18.8537 5.21996 -146.549 11.6939 177.704
lowerback -8.65932 -0.684288 -4.28996
upperback -11.9451 0.859555 -2.01962
thorax -7.76882 1.4429 0.166776
lowerneck -14.5926 -5.0181 -1.53839
upperneck 45.0553 1.78551 -4.68168
head 20.3034 1.81556 -0.984121
rclavicle 3.20043e-014 -1.94809e-014
rhumerus -56.4674 14.5156 -90.302
rradius 75.5195
rwrist 7.15563
rhand -13.9482 -11.908
rfingers 7.12502
rthumb 12.179 -41.5335
lclavicle 3.20043e-014 -1.94809e-014
lhumerus -45.1702 -5.12235 78.2461
lradius 63.8947
lwrist -5.63444
lhand -5.6173 26.8062
lfingers 7.12502
lthumb 20.2002 55.7759
rfemur -55.2087 -3.69049 20.2363
rtibia 78.3551
rfoot 2.93287 -6.41501
rtoes -0.991147
lfemur -64.8179 -4.69553 -26.9354
ltibia 42.9599
lfoot -9.601 8.42162
ltoes -9.63358
575
root 5.59706 18.897 5.14442 -146.515 11.8625 177.803
lowerback -8.61872 -0.675777 -4.28332
upperback -11.955 0.864856 -1.9511
thorax -7.80431 1.44625 0.234584
lowerneck -14.5867 -4.98912 -1.54401
upperneck 45.0653 1.82683 -4.66656
head 20.3104 1.83115 -0.967593
rclavicle -3.46382e-014 -1.86858e-014
rhumerus -56.3639 14.3024 -90.0663
rradius 74.5773
rwrist 7.25016
rhand -13.9781 -11.9053
rfingers 7.12502
rthumb 12.1502 -41.5324
lclavicle -3.46382e-014 -1.86858e-014
lhumerus -44.9156 -5.0942 78.4099
lradius 64.1042
lwrist -5.55207
lhand -5.75826 26.9292
lfingers 7.12502
lthumb 20.0647 55.9132
rfemur -56.8951 -3.74377 20.5528
rtibia 80.4268
rfoot 1.51141 -6.74796
rtoes -1.2741
lfemur -64.1495 -4.531 -27.0132
ltibia 42.2865
lfoot -9.66613 8.42331
ltoes -9.66147
576
root 5.58373 18.9444 5.06621 -146.477 11.9358 177.852
lowerback -8.7446 -0.710853 -4.23111
upperback -11.8839 0.812975 -1.8785
thorax -7.65135 1.40974 0.288411
lowerneck -14.6182 -4.93749 -1.55559
upperneck 45.0368 1.90437 -4.69011
head 20.3044 1.84721 -0.964098
rclavicle 6.4605e-016 -2.8625e-014
rhumerus -56.1281 14.2076 -89.8177
rradius 73.6372
rwrist 7.2045
rhand -14.1473 -12.1794
rfingers 7.12502
rthumb 11.9871 -41.8161
lclavicle 6.4605e-016 -2.8625e-014
lhumerus -44.6 -4.98814 78.5768
lradius 64.3553
lwrist -5.37889
lhand -6.03775 27.0161
lfingers 7.12502
lthumb 19.7961 56.028
rfemur -58.5808 -3.94252 20.9085
rtibia 82.4035
rfoot 0.0410737 -6.95063
rtoes -2.08806
lfemur -63.4663 -4.48724 -27.095
ltibia 41.5715
lfoot -9.75003 8.42004
ltoes -9.35056
577
root 5.56984 18.9903 4.98939 -146.456 11.9444 177.975
lowerback -8.7775 -0.706224 -4.02331
upperback -11.8647 0.808066 -1.82393
thorax -7.60797 1.38851 0.232723
lowerneck -14.6048 -4.92619 -1.6583
upperneck 45.099 1.9278 -4.56754
head 20.3443 1.85796 -0.877847
rclavicle -1.1281e-014 2.22639e-014
rhumerus -56.0649 13.9687 -89.5809
rradius 72.7005
rwrist 7.22407
rhand -14.3796 -12.3948
rfingers 7.12502
rthumb 11.7631 -42.0445
lclavicle -1.1281e-014 2.22639e-014
lhumerus -44.3664 -4.99961 78.7696
lradius 64.6084
lwrist -5.1953
lhand -6.35055 26.9408
lfingers 7.12502
lthumb 19.4953 55.9834
rfemur -60.2004 -4.0834 21.3535
rtibia 84.2927
rfoot -1.59085 -7.14314
rtoes -2.94353
lfemur -62.7705 -4.4939 -27.041
ltibia 40.8525
lfoot -9.72476 8.51895
ltoes -9.51417
578
root 5.55603 19.0338 4.91311 -146.617 11.9344 177.896
lowerback -8.59023 -0.754946 -3.98859
upperback -11.8422 0.715944 -1.8146
thorax -7.68477 1.33384 0.219058
lowerneck -14.5665 -4.87554 -1.45369
upperneck 45.0411 2.01543 -4.78142
head 20.298 1.89708 -1.00621
rclavicle -2.8128e-014 2.78299e-015
rhumerus -55.9926 13.7736 -89.364
rradius 71.6724
rwrist 7.20525
rhand -14.5052 -12.667
rfingers 7.12502
rthumb 11.642 -42.3236
lclavicle -2.8128e-014 2.78299e-015
lhumerus -44.1909 -4.98486 78.9282
lradius 64.8686
lwrist -4.97998
lhand -6.55548 27.0088
lfingers 7.12502
lthumb 19.2983 56.0712
rfemur -61.6992 -4.35414 21.6286
rtibia 86.1254
rfoot -3.17285 -7.30774
rtoes -4.34882
lfemur -61.8878 -4.6626 -27.1077
ltibia 40.103
lfoot -9.65085 8.62836
ltoes -9.84025
